<?xml version="1.0" encoding="UTF-8"?>
<svg xmlns="http://www.w3.org/2000/svg" viewBox="0 0 100 100">
  <defs>
    <linearGradient id="petalGradient" x1="0%" y1="0%" x2="0%" y2="100%">
      <stop offset="0%" stop-color="#FFFFFF" />
      <stop offset="100%" stop-color="#F0F0F0" />
    </linearGradient>
    <linearGradient id="leafGradient" x1="0%" y1="0%" x2="100%" y2="100%">
      <stop offset="0%" stop-color="#66BB6A" />
      <stop offset="100%" stop-color="#2E7D32" />
    </linearGradient>
  </defs>
  
  <!-- Leaves -->
  <path fill="url(#leafGradient)" d="M10,80 Q30,90 50,85 Q70,90 90,80 Q80,100 50,95 Q20,100 10,80 Z" />
  <path fill="url(#leafGradient)" d="M20,70 Q10,60 15,50 Q30,65 40,75 Z" />
  <path fill="url(#leafGradient)" d="M80,70 Q90,60 85,50 Q70,65 60,75 Z" />

  <!-- Back Petals -->
  <g fill="url(#petalGradient)" stroke="#E0E0E0" stroke-width="0.5">
    <path d="M30,75 Q20,50 35,35 Q50,55 50,75 Z" transform="rotate(-30, 50, 75)" />
    <path d="M70,75 Q80,50 65,35 Q50,55 50,75 Z" transform="rotate(30, 50, 75)" />
    <path d="M25,65 Q15,40 30,30 Q45,50 45,70 Z" transform="rotate(-50, 50, 75)" />
    <path d="M75,65 Q85,40 70,30 Q55,50 55,70 Z" transform="rotate(50, 50, 75)" />
  </g>

  <!-- Front Petals -->
  <g fill="#FFFFFF" stroke="#D0D0D0" stroke-width="0.5">
    <path d="M50,80 Q35,50 50,20 Q65,50 50,80 Z" />
    <path d="M50,80 Q30,55 40,30 Q55,60 50,80 Z" transform="rotate(-15, 50, 80)" />
    <path d="M50,80 Q70,55 60,30 Q45,60 50,80 Z" transform="rotate(15, 50, 80)" />
  </g>
  
  <!-- Center -->
  <circle cx="50" cy="70" r="5" fill="#FFD700" />
</svg>
